<svg width="19" height="19" viewBox="0 0 19 19" fill="current" xmlns="http://www.w3.org/2000/svg">
<path d="M9.74024 1.63828C12.1449 1.63828 12.4297 1.64883 13.3754 1.69102C14.2543 1.72969 14.7289 1.87734 15.0453 2.00039C15.4637 2.16211 15.766 2.35898 16.0789 2.67188C16.3953 2.98828 16.5887 3.28711 16.7504 3.70547C16.8734 4.02188 17.0211 4.5 17.0598 5.37539C17.102 6.32461 17.1125 6.60938 17.1125 9.01055C17.1125 11.4152 17.102 11.7 17.0598 12.6457C17.0211 13.5246 16.8734 13.9992 16.7504 14.3156C16.5887 14.734 16.3918 15.0363 16.0789 15.3492C15.7625 15.6656 15.4637 15.859 15.0453 16.0207C14.7289 16.1438 14.2508 16.2914 13.3754 16.3301C12.4262 16.3723 12.1414 16.3828 9.74024 16.3828C7.33555 16.3828 7.05078 16.3723 6.10508 16.3301C5.22617 16.2914 4.75156 16.1438 4.43516 16.0207C4.0168 15.859 3.71445 15.6621 3.40156 15.3492C3.08516 15.0328 2.8918 14.734 2.73008 14.3156C2.60703 13.9992 2.45938 13.5211 2.4207 12.6457C2.37852 11.6965 2.36797 11.4117 2.36797 9.01055C2.36797 6.60586 2.37852 6.32109 2.4207 5.37539C2.45938 4.49648 2.60703 4.02188 2.73008 3.70547C2.8918 3.28711 3.08867 2.98477 3.40156 2.67188C3.71797 2.35547 4.0168 2.16211 4.43516 2.00039C4.75156 1.87734 5.22969 1.72969 6.10508 1.69102C7.05078 1.64883 7.33555 1.63828 9.74024 1.63828ZM9.74024 0.0175781C7.29688 0.0175781 6.99102 0.028125 6.03125 0.0703125C5.075 0.1125 4.41758 0.267187 3.84805 0.488672C3.25391 0.720703 2.75117 1.02656 2.25195 1.5293C1.74922 2.02852 1.44336 2.53125 1.21133 3.12188C0.989844 3.69492 0.835156 4.34883 0.792969 5.30508C0.750781 6.26836 0.740234 6.57422 0.740234 9.01758C0.740234 11.4609 0.750781 11.7668 0.792969 12.7266C0.835156 13.6828 0.989844 14.3402 1.21133 14.9098C1.44336 15.5039 1.74922 16.0066 2.25195 16.5059C2.75117 17.0051 3.25391 17.3145 3.84453 17.543C4.41758 17.7645 5.07148 17.9191 6.02773 17.9613C6.9875 18.0035 7.29336 18.0141 9.73672 18.0141C12.1801 18.0141 12.4859 18.0035 13.4457 17.9613C14.402 17.9191 15.0594 17.7645 15.6289 17.543C16.2195 17.3145 16.7223 17.0051 17.2215 16.5059C17.7207 16.0066 18.0301 15.5039 18.2586 14.9133C18.4801 14.3402 18.6348 13.6863 18.677 12.7301C18.7191 11.7703 18.7297 11.4645 18.7297 9.0211C18.7297 6.57774 18.7191 6.27188 18.677 5.31211C18.6348 4.35586 18.4801 3.69844 18.2586 3.12891C18.0371 2.53125 17.7313 2.02852 17.2285 1.5293C16.7293 1.03008 16.2266 0.720703 15.6359 0.492188C15.0629 0.270703 14.409 0.116016 13.4527 0.0738281C12.4895 0.028125 12.1836 0.0175781 9.74024 0.0175781Z" fill="current"/>
<path d="M9.74023 4.39453C7.18789 4.39453 5.11719 6.46523 5.11719 9.01758C5.11719 11.5699 7.18789 13.6406 9.74023 13.6406C12.2926 13.6406 14.3633 11.5699 14.3633 9.01758C14.3633 6.46523 12.2926 4.39453 9.74023 4.39453ZM9.74023 12.0164C8.08438 12.0164 6.74141 10.6734 6.74141 9.01758C6.74141 7.36172 8.08438 6.01875 9.74023 6.01875C11.3961 6.01875 12.7391 7.36172 12.7391 9.01758C12.7391 10.6734 11.3961 12.0164 9.74023 12.0164Z" fill="current"/>
<path d="M15.6254 4.21211C15.6254 4.80977 15.1402 5.29141 14.5461 5.29141C13.9484 5.29141 13.4668 4.80625 13.4668 4.21211C13.4668 3.61445 13.952 3.13281 14.5461 3.13281C15.1402 3.13281 15.6254 3.61797 15.6254 4.21211Z" fill="current"/>
</svg>
