<svg width="18" height="15" viewBox="0 0 18 15" fill="current" xmlns="http://www.w3.org/2000/svg">
<path d="M17.0485 2.40374C16.6185 2.97736 16.0987 3.47774 15.5092 3.88555C15.5092 4.03539 15.5092 4.18524 15.5092 4.34341C15.5139 7.06459 14.427 9.67385 12.492 11.5862C10.5571 13.4986 7.93597 14.5542 5.21634 14.5163C3.64407 14.5215 2.09192 14.1625 0.681501 13.4673C0.605451 13.4341 0.5564 13.3589 0.556689 13.2759V13.1843C0.556689 13.0648 0.653548 12.9679 0.77303 12.9679C2.31854 12.9169 3.80891 12.3811 5.03329 11.4361C3.63439 11.4079 2.37573 10.5792 1.79649 9.30496C1.76723 9.23536 1.77634 9.15554 1.82053 9.09433C1.86472 9.03312 1.93759 8.99937 2.01283 9.00527C2.43799 9.04801 2.86739 9.00844 3.27759 8.88873C1.73332 8.56816 0.572978 7.28613 0.406914 5.71699C0.401012 5.64172 0.434745 5.56881 0.495927 5.5246C0.557109 5.48039 0.636896 5.47128 0.706464 5.50055C1.12088 5.68341 1.56824 5.77972 2.02115 5.78359C0.668005 4.89545 0.0835354 3.20618 0.598293 1.67116C0.651428 1.522 0.779085 1.41181 0.934352 1.38108C1.08962 1.35036 1.24959 1.40362 1.35549 1.52131C3.18147 3.46471 5.69041 4.62277 8.35329 4.75132C8.28508 4.47915 8.25153 4.19944 8.25344 3.91884C8.27835 2.44755 9.18869 1.13689 10.5583 0.60047C11.9279 0.0640477 13.4857 0.408025 14.5024 1.47137C15.1954 1.33934 15.8654 1.10656 16.491 0.78041C16.5369 0.751797 16.595 0.751797 16.6408 0.78041C16.6694 0.826261 16.6694 0.884405 16.6408 0.930256C16.3378 1.62421 15.8258 2.20625 15.1764 2.59521C15.7451 2.52925 16.3038 2.39509 16.8405 2.19562C16.8857 2.16486 16.9451 2.16486 16.9903 2.19562C17.0281 2.21294 17.0564 2.24606 17.0677 2.28616C17.0789 2.32626 17.0719 2.36927 17.0485 2.40374Z" fill="current"/>
</svg>
