<?xml version="1.0" standalone="no"?>
<!DOCTYPE svg PUBLIC "-//W3C//DTD SVG 20010904//EN"
 "http://www.w3.org/TR/2001/REC-SVG-20010904/DTD/svg10.dtd">
<svg version="1.0" xmlns="http://www.w3.org/2000/svg"
 width="124.000000pt" height="124.000000pt" viewBox="0 0 124.000000 124.000000"
 preserveAspectRatio="xMidYMid meet">
<metadata>
Created by potrace 1.14, written by Peter Selinger 2001-2017
</metadata>
<g transform="translate(0.000000,124.000000) scale(0.100000,-0.100000)"
fill="#000000" stroke="none">
<path d="M497 924 c-4 -4 -2 -13 5 -21 9 -11 6 -18 -15 -35 -22 -18 -38 -21
-99 -19 l-73 2 0 -171 c0 -169 0 -172 -24 -191 -23 -18 -81 -23 -81 -7 0 4 -7
8 -16 8 -10 0 -14 5 -10 16 4 10 2 13 -6 8 -7 -5 -9 0 -6 14 4 12 3 20 -1 18
-4 -3 -7 17 -7 45 1 27 6 49 11 49 7 0 7 3 0 8 -15 11 -13 93 2 88 7 -3 15 -1
18 5 4 5 3 9 -2 8 -23 -4 -28 5 -28 49 l0 47 -68 3 -68 3 1 -188 c2 -173 3
-190 23 -218 11 -16 27 -33 34 -38 7 -4 11 -13 9 -20 -1 -6 -1 -9 1 -5 3 4 15
2 28 -4 14 -6 22 -14 20 -19 -3 -4 3 -6 12 -4 10 1 23 0 28 -4 17 -9 35 -10
29 0 -3 5 0 9 5 9 10 0 15 -14 12 -33 -1 -5 3 -6 8 -2 6 3 8 11 5 18 -3 8 8
13 31 14 70 5 84 7 79 14 -2 4 0 10 6 14 5 3 10 1 10 -6 0 -9 22 15 46 49 3 4
33 10 55 11 9 1 22 15 29 31 19 46 75 35 150 -31 19 -17 48 -38 63 -46 30 -15
83 -21 93 -10 13 13 5 57 -15 86 l-22 31 25 1 c14 1 32 2 39 3 33 4 124 -17
168 -40 46 -23 109 -78 109 -94 0 -5 6 -10 14 -13 12 -5 14 6 12 56 -2 34 1
75 6 92 12 42 45 192 52 238 4 21 10 46 15 55 12 23 5 54 -15 69 -34 25 -221
57 -326 56 -84 -1 -88 -4 -76 -53 13 -50 -1 -73 -27 -46 -55 54 -243 125 -268
100z"/>
<path d="M415 409 c-4 -6 -5 -12 -2 -15 2 -3 7 2 10 11 7 17 1 20 -8 4z"/>
<path d="M390 370 c0 -5 5 -10 11 -10 5 0 7 5 4 10 -3 6 -8 10 -11 10 -2 0 -4
-4 -4 -10z"/>
<path d="M266 342 c-3 -5 1 -9 9 -9 8 0 12 4 9 9 -3 4 -7 8 -9 8 -2 0 -6 -4
-9 -8z"/>
<path d="M335 340 c-3 -5 -1 -10 4 -10 6 0 11 5 11 10 0 6 -2 10 -4 10 -3 0
-8 -4 -11 -10z"/>
</g>
</svg>
