<svg width="14" height="10" viewBox="0 0 14 10" fill="current" xmlns="http://www.w3.org/2000/svg">
<path fill-rule="evenodd" clip-rule="evenodd" d="M9.09094 1.16609C9.49676 0.79148 10.1294 0.816783 10.504 1.2226L13.7348 4.72256C14.0884 5.10562 14.0884 5.69606 13.7348 6.07912L10.504 9.57916C10.1294 9.98499 9.49677 10.0103 9.09095 9.63569C8.68513 9.26109 8.65982 8.62843 9.03442 8.22261L10.716 6.40085L0.999999 6.40085C0.447714 6.40085 -7.64155e-07 5.95313 -7.86799e-07 5.40085C-8.09444e-07 4.84856 0.447714 4.40085 0.999999 4.40085L10.716 4.40085L9.03443 2.57917C8.65982 2.17335 8.68513 1.54069 9.09094 1.16609Z" fill="current"/>
</svg>
