<svg width="19" height="15" viewBox="0 0 19 15" fill="current" xmlns="http://www.w3.org/2000/svg">
<path d="M15.978 2.13438C14.8307 1.60797 13.6005 1.22013 12.3142 0.998002C12.2907 0.993715 12.2673 1.00443 12.2553 1.02586C12.097 1.30727 11.9218 1.67439 11.7991 1.96295C10.4155 1.75582 9.03912 1.75582 7.68397 1.96295C7.56122 1.66798 7.3796 1.30727 7.22067 1.02586C7.2086 1.00514 7.1852 0.99443 7.16177 0.998002C5.87617 1.21942 4.6459 1.60726 3.49794 2.13438C3.488 2.13866 3.47948 2.14581 3.47383 2.15509C1.14028 5.64136 0.501022 9.04194 0.814619 12.4004C0.816038 12.4168 0.825262 12.4325 0.838033 12.4425C2.37764 13.5732 3.86901 14.2596 5.33269 14.7145C5.35612 14.7217 5.38094 14.7131 5.39585 14.6938C5.74208 14.221 6.05072 13.7225 6.31534 13.1982C6.33096 13.1675 6.31605 13.131 6.28413 13.1189C5.79458 12.9332 5.32843 12.7068 4.88003 12.4496C4.84456 12.4289 4.84172 12.3782 4.87435 12.3539C4.96871 12.2832 5.0631 12.2096 5.1532 12.1354C5.1695 12.1218 5.19222 12.1189 5.21138 12.1275C8.1572 13.4725 11.3464 13.4725 14.2574 12.1275C14.2766 12.1182 14.2993 12.1211 14.3163 12.1346C14.4065 12.2089 14.5008 12.2832 14.5959 12.3539C14.6285 12.3782 14.6264 12.4289 14.5909 12.4496C14.1425 12.7118 13.6764 12.9332 13.1861 13.1182C13.1542 13.1303 13.14 13.1675 13.1556 13.1982C13.4259 13.7217 13.7346 14.2203 14.0744 14.6931C14.0886 14.7131 14.1141 14.7217 14.1376 14.7145C15.6083 14.2596 17.0997 13.5732 18.6393 12.4425C18.6528 12.4325 18.6613 12.4175 18.6627 12.4011C19.038 8.51837 18.0341 5.14568 16.0014 2.1558C15.9964 2.14581 15.9879 2.13866 15.978 2.13438ZM6.75525 10.3554C5.86836 10.3554 5.13758 9.5412 5.13758 8.54124C5.13758 7.54128 5.85419 6.72704 6.75525 6.72704C7.66339 6.72704 8.38709 7.54843 8.37289 8.54124C8.37289 9.5412 7.65629 10.3554 6.75525 10.3554ZM12.7363 10.3554C11.8494 10.3554 11.1187 9.5412 11.1187 8.54124C11.1187 7.54128 11.8352 6.72704 12.7363 6.72704C13.6445 6.72704 14.3681 7.54843 14.354 8.54124C14.354 9.5412 13.6445 10.3554 12.7363 10.3554Z" fill="current"/>
</svg>
