<svg width="28" height="26" viewBox="0 0 28 26" fill="none" xmlns="http://www.w3.org/2000/svg">
<path fill-rule="evenodd" clip-rule="evenodd" d="M19.4022 0.334258C20.2436 0.334258 21.0836 0.452925 21.8822 0.720925C26.8036 2.32093 28.5769 7.72093 27.0956 12.4409C26.2556 14.8529 24.8822 17.0543 23.0836 18.8529C20.5089 21.3463 17.6836 23.5596 14.6422 25.4663L14.3089 25.6676L13.9622 25.4529C10.9102 23.5596 8.0689 21.3463 5.47024 18.8396C3.68357 17.0409 2.3089 14.8529 1.45557 12.4409C-0.0510977 7.72093 1.72224 2.32092 6.6969 0.692925C7.08357 0.559592 7.48224 0.466258 7.88224 0.414258H8.04224C8.4169 0.359592 8.7889 0.334258 9.16224 0.334258H9.3089C10.1489 0.359592 10.9622 0.506258 11.7502 0.774258H11.8289C11.8822 0.799592 11.9222 0.827592 11.9489 0.852925C12.2436 0.947592 12.5222 1.05426 12.7889 1.20092L13.2956 1.42759C13.418 1.49289 13.5554 1.59266 13.6742 1.67889C13.7494 1.73352 13.8172 1.78271 13.8689 1.81426C13.8907 1.8271 13.9128 1.84001 13.9351 1.85302C14.0494 1.91976 14.1685 1.98927 14.2689 2.06626C15.7502 0.934258 17.5489 0.320925 19.4022 0.334258ZM22.9489 9.93426C23.4956 9.91959 23.9622 9.48092 24.0022 8.91959V8.76092C24.0422 6.89292 22.9102 5.20092 21.1889 4.54759C20.6422 4.35959 20.0422 4.65426 19.8422 5.21426C19.6556 5.77426 19.9489 6.38759 20.5089 6.58626C21.3636 6.90626 21.9356 7.74759 21.9356 8.67959V8.72092C21.9102 9.02626 22.0022 9.32092 22.1889 9.54759C22.3756 9.77426 22.6556 9.90626 22.9489 9.93426Z" fill="url(#paint0_linear_190_3180)"/>
<defs>
<linearGradient id="paint0_linear_190_3180" x1="2" y1="2" x2="28" y2="36.5" gradientUnits="userSpaceOnUse">
<stop stop-color="#4290EA"/>
<stop offset="1" stop-color="#0A2D56"/>
</linearGradient>
</defs>
</svg>
