<svg width="18" height="15" viewBox="0 0 18 15" fill="current" xmlns="http://www.w3.org/2000/svg">
<path d="M17.8301 14.8472H10.8271C10.9151 14.6612 10.9561 14.5072 11.0521 14.4032C11.4221 14.0152 11.8331 13.6592 12.1951 13.2722C12.3081 13.1502 12.4131 12.9482 12.4131 12.7872C12.4291 10.2272 12.4211 7.67422 12.4211 5.11322C12.4211 5.07322 12.4131 5.04022 12.3891 4.90322C12.3001 5.12122 12.2361 5.25822 12.1791 5.39622C10.9881 8.42522 9.78907 11.4622 8.59707 14.4912C8.52507 14.6692 8.50107 14.8632 8.21107 14.8632C7.92907 14.8712 7.84907 14.7102 7.76107 14.5082C6.37008 11.4724 4.98242 8.43507 3.59807 5.39622C3.52607 5.24222 3.45407 5.08922 3.31707 4.95122V5.25122C3.31707 7.37522 3.30107 9.49922 3.32507 11.6312C3.32507 11.8742 3.44507 12.1572 3.59807 12.3592C4.13007 13.0532 4.70107 13.7162 5.24807 14.3952C5.33807 14.5082 5.38507 14.6532 5.48207 14.8392H0.12207C0.21007 14.6532 0.25807 14.4912 0.35507 14.3792C0.87807 13.7322 1.40107 13.0862 1.94007 12.4482C2.17407 12.1652 2.27807 11.8662 2.27807 11.4942C2.26207 8.95022 2.27807 6.40522 2.25407 3.86122C2.25407 3.59422 2.12507 3.28722 1.96407 3.06922C1.53807 2.48722 1.05407 1.96222 0.61207 1.40522C0.50707 1.26822 0.45207 1.09822 0.33007 0.872224H2.51207C3.38207 0.872224 4.25907 0.880224 5.12807 0.864224C5.41007 0.856224 5.54607 0.953224 5.65907 1.21122C6.85107 3.86922 8.06607 6.51122 9.27307 9.16022C9.32207 9.26522 9.37807 9.37022 9.45907 9.53122C10.0221 8.12622 10.5691 6.77722 11.1091 5.42822C11.6801 4.00622 12.2361 2.58422 12.8151 1.17122C12.8641 1.05022 13.0081 0.880224 13.1051 0.880224C14.6671 0.864224 16.2201 0.872224 17.8781 0.872224C17.7661 1.06622 17.7181 1.21222 17.6211 1.31622C17.2511 1.68822 16.8481 2.02722 16.5011 2.41522C16.3571 2.57622 16.2361 2.82722 16.2361 3.03722C16.2201 6.25222 16.2201 9.46722 16.2361 12.6902C16.2361 12.9002 16.3571 13.1502 16.5021 13.3122C16.8401 13.7002 17.2261 14.0312 17.5811 14.4022C17.6611 14.5082 17.7171 14.6532 17.8311 14.8472H17.8301Z" fill="current"/>
</svg>
