<svg width="24" height="28" viewBox="0 0 24 28" fill="none" xmlns="http://www.w3.org/2000/svg">
<path fill-rule="evenodd" clip-rule="evenodd" d="M11.9073 27.2182C12.055 27.2954 12.2201 27.3346 12.3852 27.3333C12.5503 27.332 12.714 27.2915 12.863 27.213L17.6202 24.67C18.9692 23.9509 20.0257 23.1468 20.8498 22.2106C22.6418 20.171 23.6204 17.5678 23.6029 14.8835L23.5466 6.02933C23.5412 5.0095 22.8714 4.0995 21.8807 3.76871L13.0308 0.799439C12.4979 0.619008 11.914 0.62293 11.3905 0.808592L2.57418 3.88377C1.58892 4.22763 0.931187 5.14417 0.936556 6.16531L0.992933 15.013C1.01038 17.7011 2.02249 20.2926 3.84402 22.3113C4.67625 23.2344 5.74205 24.0267 7.10585 24.734L11.9073 27.2182ZM10.648 16.8119C10.8466 17.0028 11.1044 17.097 11.3621 17.0943C11.6198 17.093 11.8762 16.9963 12.0722 16.8028L17.271 11.6775C17.6616 11.2918 17.6575 10.672 17.2629 10.2916C16.8669 9.91109 16.2293 9.9137 15.8387 10.2994L11.3473 14.7265L9.50834 12.9588C9.11235 12.5783 8.47609 12.5823 8.08414 12.968C7.69352 13.3537 7.69755 13.9734 8.09353 14.3539L10.648 16.8119Z" fill="url(#paint0_linear_72_3711)"/>
<defs>
<linearGradient id="paint0_linear_72_3711" x1="1" y1="1" x2="27.5" y2="52" gradientUnits="userSpaceOnUse">
<stop stop-color="#F8D47A"/>
<stop offset="1" stop-color="#F8D47A" stop-opacity="0"/>
</linearGradient>
</defs>
</svg>
