<svg width="21" height="20" viewBox="0 0 21 20" fill="none" xmlns="http://www.w3.org/2000/svg">
<path d="M16.7314 12.3194C16.4724 12.5704 16.3534 12.9334 16.4124 13.2894L17.3014 18.2094C17.3764 18.6264 17.2004 19.0484 16.8514 19.2894C16.5094 19.5394 16.0544 19.5694 15.6814 19.3694L11.2524 17.0594C11.0984 16.9774 10.9274 16.9334 10.7524 16.9284H10.4814C10.3874 16.9424 10.2954 16.9724 10.2114 17.0184L5.78138 19.3394C5.56238 19.4494 5.31438 19.4884 5.07138 19.4494C4.47938 19.3374 4.08438 18.7734 4.18138 18.1784L5.07138 13.2584C5.13038 12.8994 5.01138 12.5344 4.75238 12.2794L1.14138 8.77937C0.839376 8.48637 0.734376 8.04637 0.872376 7.64937C1.00638 7.25337 1.34838 6.96437 1.76138 6.89937L6.73138 6.17837C7.10938 6.13937 7.44138 5.90937 7.61138 5.56937L9.80138 1.07937C9.85338 0.979367 9.92038 0.887367 10.0014 0.809367L10.0914 0.739367C10.1384 0.687367 10.1924 0.644367 10.2524 0.609367L10.3614 0.569367L10.5314 0.499367H10.9524C11.3284 0.538367 11.6594 0.763367 11.8324 1.09937L14.0514 5.56937C14.2114 5.89637 14.5224 6.12337 14.8814 6.17837L19.8514 6.89937C20.2714 6.95937 20.6224 7.24937 20.7614 7.64937C20.8924 8.05037 20.7794 8.49037 20.4714 8.77937L16.7314 12.3194Z" fill="#F8D47A"/>
</svg>
