<svg width="16" height="16" viewBox="0 0 16 16" fill="current" xmlns="http://www.w3.org/2000/svg">
<path d="M15.7422 1.59116L10.7513 15.5258C10.6917 15.6905 10.5354 15.8002 10.3603 15.8003H10.2272C10.0639 15.8003 9.91504 15.7064 9.84458 15.559L7.88147 11.3995C7.5924 10.7862 7.70428 10.0589 8.16429 9.56092L10.6598 6.83223C10.8129 6.67155 10.8129 6.41889 10.6598 6.25821L10.3437 5.94208C10.183 5.7889 9.93038 5.7889 9.76971 5.94208L7.04132 8.43783C6.5434 8.89789 5.81616 9.00978 5.20299 8.72068L1.04386 6.75736C0.883469 6.69696 0.775168 6.54598 0.769358 6.37468V6.24157C0.754628 6.0544 0.867102 5.88055 1.04386 5.81729L14.9769 0.825796C15.1267 0.770784 15.2948 0.806339 15.4095 0.917306L15.6258 1.1336C15.7558 1.24718 15.8021 1.42925 15.7422 1.59116Z" fill="current"/>
</svg>
