<svg width="15" height="25" viewBox="0 0 15 25" fill="none" xmlns="http://www.w3.org/2000/svg">
<path d="M7.1999 0.104004C6.64075 0.738704 6.29979 1.56953 6.29979 2.48133C6.33282 4.4832 6.57853 6.48092 6.59997 8.48225C6.64433 10.3475 6.08491 12.0992 5.40474 13.8082C5.17798 14.2806 4.93292 14.7425 4.68749 15.2054L3.96571 15.0598C3.3161 14.9297 2.89369 14.2984 3.02345 13.6491C3.13683 13.0803 3.63718 12.6859 4.19522 12.6828L4.45786 12.7113L3.87183 7.81627C3.68041 5.63688 2.5564 3.72503 0.900114 2.48112C0.615381 2.26707 0.313804 2.07179 0 1.89934V19.2844H4.01255C4.31274 20.9134 5.20899 22.3324 6.4688 23.3071C6.7687 23.5135 7.01949 23.7865 7.19985 24.104C7.3805 23.7865 7.63126 23.5135 7.93119 23.3071C9.19096 22.3328 10.0874 20.9132 10.3874 19.2844H14.3993V1.90004C14.086 2.07223 13.7843 2.26761 13.4997 2.48183C11.8439 3.72576 10.7193 5.63754 10.5275 7.81697L9.94178 12.712L10.2044 12.6835C10.7625 12.6866 11.2625 13.081 11.3766 13.6498C11.5063 14.2991 11.0839 14.9304 10.4343 15.0605L9.71227 15.2061C9.46692 14.743 9.22203 14.2813 8.99502 13.8089C8.31485 12.1 7.75532 10.3483 7.7995 8.48295C7.82094 6.48137 8.06665 4.48383 8.09968 2.48204C8.09996 1.56967 7.75928 0.738774 7.20002 0.104004H7.1999ZM1.19992 4.4035C1.97626 5.3152 2.4975 6.4511 2.65304 7.69915L3.1359 11.7362C2.52097 12.0421 2.05514 12.6038 1.87955 13.2832H1.20021V4.40336L1.19992 4.4035ZM13.1994 4.4035V13.2833H12.5203C12.3448 12.6043 11.8786 12.0422 11.264 11.7363L11.7469 7.69929C11.9018 6.45114 12.4234 5.31513 13.1994 4.4034V4.4035ZM7.1999 12.5195C7.52244 13.5737 7.96603 14.5751 8.51698 15.5061C7.99289 15.6653 7.53625 15.9754 7.1999 16.3919C6.86371 15.9754 6.40719 15.6653 5.88282 15.5061C6.43405 14.5754 6.87764 13.5741 7.1999 12.5195ZM1.19992 14.4838H1.87927C2.09388 15.3125 2.74009 15.9667 3.56227 16.1951L4.13899 16.3262C3.98438 16.8863 3.89982 17.476 3.89982 18.0844H1.19997L1.19992 14.4838ZM12.5204 14.4838H13.1995V18.0841H10.4997C10.4997 17.476 10.4151 16.8863 10.2605 16.3259L10.8372 16.1948C11.6594 15.9669 12.3062 15.3125 12.5205 14.4838L12.5204 14.4838ZM5.31048 16.6029C6.0384 16.7064 6.5996 17.3281 6.5996 18.0843L5.09956 18.0844C5.09956 17.5699 5.17594 17.0742 5.31048 16.6029L5.31048 16.6029ZM9.08885 16.6029C9.22367 17.0742 9.29978 17.5701 9.29978 18.0843H7.79945C7.79973 17.3281 8.36091 16.7065 9.08883 16.6029H9.08885ZM5.23556 19.2849H6.59957V21.8118C5.9378 21.1195 5.45687 20.2504 5.23556 19.2849ZM7.79971 19.2849H9.16372C8.94295 20.2503 8.46202 21.1193 7.79971 21.8118V19.2849Z" fill="#F8D47A"/>
</svg>
