<svg width="21" height="18" viewBox="0 0 21 18" fill="current" xmlns="http://www.w3.org/2000/svg">
<path fill-rule="evenodd" clip-rule="evenodd" d="M16.2689 5.3818H20.5C20.5 1.98459 18.4644 0 15.0156 0H5.98444C2.53556 0 0.5 1.98459 0.5 5.33847V12.6615C0.5 16.0154 2.53556 18 5.98444 18H15.0156C18.4644 18 20.5 16.0154 20.5 12.6615V12.3495H16.2689C14.3052 12.3495 12.7133 10.7975 12.7133 8.883C12.7133 6.96849 14.3052 5.41647 16.2689 5.41647V5.3818ZM16.2689 6.87241H19.7533C20.1657 6.87241 20.5 7.19834 20.5 7.60039V10.131C20.4952 10.5311 20.1637 10.8543 19.7533 10.8589H16.3489C15.3548 10.872 14.4855 10.2084 14.26 9.26432C14.1471 8.67829 14.3056 8.07357 14.6931 7.61222C15.0805 7.15087 15.6573 6.88007 16.2689 6.87241ZM16.42 9.53298H16.7489C17.1711 9.53298 17.5133 9.1993 17.5133 8.78767C17.5133 8.37605 17.1711 8.04237 16.7489 8.04237H16.42C16.2181 8.04005 16.0236 8.11664 15.88 8.25504C15.7364 8.39344 15.6555 8.58213 15.6556 8.77901C15.6555 9.19205 15.9964 9.52823 16.42 9.53298ZM5.23778 5.3818H10.8822C11.3044 5.3818 11.6467 5.04812 11.6467 4.63649C11.6467 4.22487 11.3044 3.89119 10.8822 3.89119H5.23778C4.81903 3.89116 4.4782 4.2196 4.47333 4.62783C4.47331 5.04087 4.81415 5.37705 5.23778 5.3818Z" fill="current"/>
</svg>
